# xmcd
#
# Track frame offsets: 
#        150
#        17335
#        32605
#        49238
#        65470
#        78268
#        100205
#        117058
#        131283
#        147413
#        159968
#        176273
#        199438
#
# Disc length: 2857 seconds
#
# Revision: 4
# Processed by: cddbd v1.5.2PL0 Copyright (c) Steve Scherf et al.
# Submitted via: ExactAudioCopy v0.99pb4
#
DISCID=a00b270d
DTITLE=Nightnoise - At the End of the Evening
DYEAR=1988
DGENRE=New Age
TTITLE0=Windell
TTITLE1=Of a Summer Morn
TTITLE2=Hugh
TTITLE3=Jaunting
TTITLE4=The Courtyard
TTITLE5="Bring Me Back a Song."
TTITLE6=Snow on High Ground
TTITLE7=At the Races
TTITLE8=Forgotten Carnival
TTITLE9=The Cuillin Hills
TTITLE10=Her Kansas Sun
TTITLE11=End of the Evening
TTITLE12=The Swan
EXTD=YEAR: 1988
EXTT0=
EXTT1=
EXTT2=
EXTT3=
EXTT4=
EXTT5=
EXTT6=
EXTT7=
EXTT8=
EXTT9=
EXTT10=
EXTT11=
EXTT12=
PLAYORDER=
